<svg width="18" height="18" viewBox="0 0 18 18" fill="none" xmlns="http://www.w3.org/2000/svg">
<g clip-path="url(#clip0_5428_48490)">
<path d="M3.5459 12.1029C2.38715 10.9434 1.8074 10.3644 1.59215 9.61218C1.37615 8.85993 1.56065 8.06118 1.92965 6.46443L2.1419 5.54343C2.45165 4.19943 2.6069 3.52743 3.06665 3.06693C3.5264 2.60643 4.19915 2.45193 5.54315 2.14218L6.46415 1.92918C8.06165 1.56093 8.85965 1.37643 9.6119 1.59168C10.3641 1.80768 10.9431 2.38743 12.1019 3.54618L13.4744 4.91868C15.4926 6.93618 16.4999 7.94418 16.4999 9.19668C16.4999 10.4499 15.4919 11.4579 13.4751 13.4747C11.4576 15.4922 10.4496 16.5002 9.1964 16.5002C7.9439 16.5002 6.93515 15.4922 4.9184 13.4754L3.5459 12.1029Z" stroke="black" stroke-width="1.125"/>
<path d="M3.5459 12.1029C2.38715 10.9434 1.8074 10.3644 1.59215 9.61218C1.37615 8.85993 1.56065 8.06118 1.92965 6.46443L2.1419 5.54343C2.45165 4.19943 2.6069 3.52743 3.06665 3.06693C3.5264 2.60643 4.19915 2.45193 5.54315 2.14218L6.46415 1.92918C8.06165 1.56093 8.85965 1.37643 9.6119 1.59168C10.3641 1.80768 10.9431 2.38743 12.1019 3.54618L13.4744 4.91868C15.4926 6.93618 16.4999 7.94418 16.4999 9.19668C16.4999 10.4499 15.4919 11.4579 13.4751 13.4747C11.4576 15.4922 10.4496 16.5002 9.1964 16.5002C7.9439 16.5002 6.93515 15.4922 4.9184 13.4754L3.5459 12.1029Z" stroke="black" stroke-opacity="0.2" stroke-width="1.125"/>
<path d="M3.5459 12.1029C2.38715 10.9434 1.8074 10.3644 1.59215 9.61218C1.37615 8.85993 1.56065 8.06118 1.92965 6.46443L2.1419 5.54343C2.45165 4.19943 2.6069 3.52743 3.06665 3.06693C3.5264 2.60643 4.19915 2.45193 5.54315 2.14218L6.46415 1.92918C8.06165 1.56093 8.85965 1.37643 9.6119 1.59168C10.3641 1.80768 10.9431 2.38743 12.1019 3.54618L13.4744 4.91868C15.4926 6.93618 16.4999 7.94418 16.4999 9.19668C16.4999 10.4499 15.4919 11.4579 13.4751 13.4747C11.4576 15.4922 10.4496 16.5002 9.1964 16.5002C7.9439 16.5002 6.93515 15.4922 4.9184 13.4754L3.5459 12.1029Z" stroke="black" stroke-opacity="0.2" stroke-width="1.125"/>
<path d="M8.65625 13.8756L13.8905 8.64062" stroke="black" stroke-width="1.125" stroke-linecap="round"/>
<path d="M8.65625 13.8756L13.8905 8.64062" stroke="black" stroke-opacity="0.2" stroke-width="1.125" stroke-linecap="round"/>
<path d="M8.65625 13.8756L13.8905 8.64062" stroke="black" stroke-opacity="0.2" stroke-width="1.125" stroke-linecap="round"/>
</g>
<defs>
<clipPath id="clip0_5428_48490">
<rect width="18" height="18" fill="white"/>
</clipPath>
</defs>
</svg>
