<svg width="18" height="18" viewBox="0 0 18 18" fill="none" xmlns="http://www.w3.org/2000/svg">
<path d="M13.445 14.7256H15.0485C15.1896 14.7278 15.3291 14.6959 15.4551 14.6325C15.5811 14.569 15.6898 14.476 15.7721 14.3614C15.8543 14.2468 15.9076 14.114 15.9274 13.9744C15.9471 13.8347 15.9328 13.6923 15.8855 13.5594C15.4767 12.6842 14.8294 11.9421 14.0179 11.4181C13.2064 10.8941 12.2637 10.6094 11.2978 10.5969M11.2978 8.52763C11.6587 8.52773 12.0161 8.45672 12.3496 8.31867C12.6831 8.18061 12.9861 7.97821 13.2414 7.72303C13.4967 7.46784 13.6991 7.16487 13.8373 6.83142C13.9754 6.49797 14.0465 6.14057 14.0465 5.77963C14.0475 5.41807 13.9772 5.05986 13.8394 4.72554C13.7017 4.39122 13.4994 4.08737 13.2441 3.83139C12.9887 3.57541 12.6853 3.37234 12.3514 3.23381C12.0174 3.09529 11.6594 3.02403 11.2978 3.02413M7.00404 8.61388C7.83034 8.6119 8.62212 8.2822 9.20563 7.69714C9.78914 7.11208 10.1167 6.31944 10.1165 5.49313C10.1165 4.66745 9.78854 3.87558 9.20469 3.29173C8.62084 2.70788 7.82897 2.37988 7.00329 2.37988C6.1776 2.37988 5.38574 2.70788 4.80189 3.29173C4.21804 3.87558 3.89004 4.66745 3.89004 5.49313C3.89004 6.31944 4.21782 7.112 4.80148 7.69692C5.38513 8.28184 6.17698 8.61135 7.00329 8.61313M10.5178 15.6204C10.782 15.62 11.0409 15.5465 11.2659 15.4081C11.4909 15.2696 11.6731 15.0716 11.7925 14.8359C11.9118 14.6002 11.9636 14.3361 11.9421 14.0728C11.9206 13.8095 11.8266 13.5573 11.6705 13.3441C11.1239 12.6185 10.4201 12.0259 9.612 11.6108C8.80387 11.1957 7.91229 10.9688 7.00404 10.9471C6.09572 10.9689 5.20411 11.1959 4.39597 11.6112C3.58783 12.0264 2.88412 12.6191 2.33754 13.3449C2.18203 13.5581 2.08846 13.8101 2.06717 14.0731C2.04588 14.3361 2.09768 14.5999 2.21687 14.8353C2.33606 15.0708 2.51799 15.2687 2.74257 15.4072C2.96716 15.5457 3.22566 15.6195 3.48954 15.6204H10.5178Z" stroke="black" stroke-width="1.125" stroke-linecap="round" stroke-linejoin="round"/>
<path d="M13.445 14.7256H15.0485C15.1896 14.7278 15.3291 14.6959 15.4551 14.6325C15.5811 14.569 15.6898 14.476 15.7721 14.3614C15.8543 14.2468 15.9076 14.114 15.9274 13.9744C15.9471 13.8347 15.9328 13.6923 15.8855 13.5594C15.4767 12.6842 14.8294 11.9421 14.0179 11.4181C13.2064 10.8941 12.2637 10.6094 11.2978 10.5969M11.2978 8.52763C11.6587 8.52773 12.0161 8.45672 12.3496 8.31867C12.6831 8.18061 12.9861 7.97821 13.2414 7.72303C13.4967 7.46784 13.6991 7.16487 13.8373 6.83142C13.9754 6.49797 14.0465 6.14057 14.0465 5.77963C14.0475 5.41807 13.9772 5.05986 13.8394 4.72554C13.7017 4.39122 13.4994 4.08737 13.2441 3.83139C12.9887 3.57541 12.6853 3.37234 12.3514 3.23381C12.0174 3.09529 11.6594 3.02403 11.2978 3.02413M7.00404 8.61388C7.83034 8.6119 8.62212 8.2822 9.20563 7.69714C9.78914 7.11208 10.1167 6.31944 10.1165 5.49313C10.1165 4.66745 9.78854 3.87558 9.20469 3.29173C8.62084 2.70788 7.82897 2.37988 7.00329 2.37988C6.1776 2.37988 5.38574 2.70788 4.80189 3.29173C4.21804 3.87558 3.89004 4.66745 3.89004 5.49313C3.89004 6.31944 4.21782 7.112 4.80148 7.69692C5.38513 8.28184 6.17698 8.61135 7.00329 8.61313M10.5178 15.6204C10.782 15.62 11.0409 15.5465 11.2659 15.4081C11.4909 15.2696 11.6731 15.0716 11.7925 14.8359C11.9118 14.6002 11.9636 14.3361 11.9421 14.0728C11.9206 13.8095 11.8266 13.5573 11.6705 13.3441C11.1239 12.6185 10.4201 12.0259 9.612 11.6108C8.80387 11.1957 7.91229 10.9688 7.00404 10.9471C6.09572 10.9689 5.20411 11.1959 4.39597 11.6112C3.58783 12.0264 2.88412 12.6191 2.33754 13.3449C2.18203 13.5581 2.08846 13.8101 2.06717 14.0731C2.04588 14.3361 2.09768 14.5999 2.21687 14.8353C2.33606 15.0708 2.51799 15.2687 2.74257 15.4072C2.96716 15.5457 3.22566 15.6195 3.48954 15.6204H10.5178Z" stroke="black" stroke-opacity="0.2" stroke-width="1.125" stroke-linecap="round" stroke-linejoin="round"/>
<path d="M13.445 14.7256H15.0485C15.1896 14.7278 15.3291 14.6959 15.4551 14.6325C15.5811 14.569 15.6898 14.476 15.7721 14.3614C15.8543 14.2468 15.9076 14.114 15.9274 13.9744C15.9471 13.8347 15.9328 13.6923 15.8855 13.5594C15.4767 12.6842 14.8294 11.9421 14.0179 11.4181C13.2064 10.8941 12.2637 10.6094 11.2978 10.5969M11.2978 8.52763C11.6587 8.52773 12.0161 8.45672 12.3496 8.31867C12.6831 8.18061 12.9861 7.97821 13.2414 7.72303C13.4967 7.46784 13.6991 7.16487 13.8373 6.83142C13.9754 6.49797 14.0465 6.14057 14.0465 5.77963C14.0475 5.41807 13.9772 5.05986 13.8394 4.72554C13.7017 4.39122 13.4994 4.08737 13.2441 3.83139C12.9887 3.57541 12.6853 3.37234 12.3514 3.23381C12.0174 3.09529 11.6594 3.02403 11.2978 3.02413M7.00404 8.61388C7.83034 8.6119 8.62212 8.2822 9.20563 7.69714C9.78914 7.11208 10.1167 6.31944 10.1165 5.49313C10.1165 4.66745 9.78854 3.87558 9.20469 3.29173C8.62084 2.70788 7.82897 2.37988 7.00329 2.37988C6.1776 2.37988 5.38574 2.70788 4.80189 3.29173C4.21804 3.87558 3.89004 4.66745 3.89004 5.49313C3.89004 6.31944 4.21782 7.112 4.80148 7.69692C5.38513 8.28184 6.17698 8.61135 7.00329 8.61313M10.5178 15.6204C10.782 15.62 11.0409 15.5465 11.2659 15.4081C11.4909 15.2696 11.6731 15.0716 11.7925 14.8359C11.9118 14.6002 11.9636 14.3361 11.9421 14.0728C11.9206 13.8095 11.8266 13.5573 11.6705 13.3441C11.1239 12.6185 10.4201 12.0259 9.612 11.6108C8.80387 11.1957 7.91229 10.9688 7.00404 10.9471C6.09572 10.9689 5.20411 11.1959 4.39597 11.6112C3.58783 12.0264 2.88412 12.6191 2.33754 13.3449C2.18203 13.5581 2.08846 13.8101 2.06717 14.0731C2.04588 14.3361 2.09768 14.5999 2.21687 14.8353C2.33606 15.0708 2.51799 15.2687 2.74257 15.4072C2.96716 15.5457 3.22566 15.6195 3.48954 15.6204H10.5178Z" stroke="black" stroke-opacity="0.2" stroke-width="1.125" stroke-linecap="round" stroke-linejoin="round"/>
</svg>
