<svg width="20" height="20" viewBox="0 0 20 20" fill="none" xmlns="http://www.w3.org/2000/svg">
<path d="M14.9363 16.362H16.718C16.8747 16.3645 17.0297 16.329 17.1697 16.2585C17.3097 16.188 17.4306 16.0847 17.5219 15.9574C17.6133 15.83 17.6725 15.6825 17.6945 15.5273C17.7164 15.3721 17.7005 15.2139 17.648 15.0662C17.1937 14.0938 16.4745 13.2692 15.5728 12.687C14.6712 12.1047 13.6237 11.7885 12.5505 11.7745M12.5505 9.47536C12.9515 9.47547 13.3487 9.39658 13.7192 9.24318C14.0898 9.08979 14.4265 8.8649 14.7101 8.58136C14.9937 8.29782 15.2187 7.96119 15.3722 7.59068C15.5257 7.22018 15.6047 6.82307 15.6047 6.42203C15.6058 6.02029 15.5276 5.62228 15.3746 5.25082C15.2216 4.87935 14.9967 4.54174 14.713 4.25731C14.4293 3.97289 14.0922 3.74726 13.7211 3.59334C13.3501 3.43942 12.9522 3.36025 12.5505 3.36036M7.77966 9.5712C8.69778 9.56899 9.57753 9.20266 10.2259 8.5526C10.8742 7.90253 11.2382 7.02182 11.238 6.1037C11.238 5.18627 10.8735 4.30642 10.2248 3.6577C9.57611 3.00898 8.69626 2.64453 7.77883 2.64453C6.8614 2.64453 5.98155 3.00898 5.33283 3.6577C4.68411 4.30642 4.31966 5.18627 4.31966 6.1037C4.31966 7.02182 4.68387 7.90244 5.33237 8.55235C5.98088 9.20226 6.86071 9.56838 7.77883 9.57036M11.6838 17.3562C11.9774 17.3558 12.2651 17.2742 12.515 17.1203C12.765 16.9665 12.9675 16.7464 13.1001 16.4845C13.2328 16.2227 13.2903 15.9292 13.2664 15.6367C13.2425 15.3441 13.138 15.0639 12.9647 14.827C12.3573 14.0208 11.5753 13.3624 10.6774 12.9011C9.77947 12.4399 8.78883 12.1878 7.77966 12.1637C6.77042 12.1879 5.77974 12.4401 4.88181 12.9015C3.98388 13.3629 3.20197 14.0214 2.59466 14.8279C2.42188 15.0647 2.31791 15.3448 2.29425 15.637C2.27059 15.9292 2.32815 16.2223 2.46058 16.4839C2.59302 16.7455 2.79516 16.9654 3.0447 17.1193C3.29424 17.2733 3.58147 17.3552 3.87466 17.3562H11.6838Z" stroke="url(#paint0_linear_4534_127259)" stroke-width="1.25" stroke-linecap="round" stroke-linejoin="round"/>
<defs>
<linearGradient id="paint0_linear_4534_127259" x1="0.691167" y1="-14.0287" x2="24.0453" y2="-11.5702" gradientUnits="userSpaceOnUse">
<stop stop-color="#004C6C"/>
<stop offset="1" stop-color="#0094D2"/>
</linearGradient>
</defs>
</svg>
