<svg width="20" height="20" viewBox="0 0 20 20" fill="none" xmlns="http://www.w3.org/2000/svg">
<path d="M8.00715 5.38562C8.89403 3.7952 9.33712 3 10 3C10.6629 3 11.106 3.7952 11.9929 5.38562L12.2224 5.79722C12.4744 6.24942 12.6004 6.47552 12.7964 6.62462C12.9924 6.77372 13.2374 6.82902 13.7274 6.93963L14.1726 7.04043C15.8946 7.43033 16.7548 7.62493 16.9599 8.28363C17.1643 8.94164 16.5777 9.62834 15.4039 11.0011L15.1001 11.356C14.7669 11.7459 14.5996 11.9412 14.5247 12.182C14.4498 12.4235 14.475 12.6839 14.5254 13.204L14.5716 13.6779C14.7487 15.5098 14.8376 16.4254 14.3014 16.8321C13.7652 17.2388 12.9588 16.8678 11.3475 16.1258L10.9296 15.934C10.4718 15.7226 10.2429 15.6176 10 15.6176C9.75711 15.6176 9.52821 15.7226 9.07042 15.934L8.65323 16.1258C7.04117 16.8678 6.23479 17.2388 5.6993 16.8328C5.16241 16.4254 5.25131 15.5098 5.42841 13.6779L5.47461 13.2047C5.52501 12.6839 5.5502 12.4235 5.47461 12.1827C5.40041 11.9412 5.23311 11.7459 4.89992 11.3567L4.59613 11.0011C3.42225 9.62904 2.83567 8.94234 3.04006 8.28363C3.24446 7.62493 4.10614 7.42963 5.8281 7.04043L6.27329 6.93963C6.76258 6.82902 7.00687 6.77372 7.20357 6.62462C7.40026 6.47552 7.52556 6.24942 7.77755 5.79722L8.00715 5.38562Z" fill="#FFCC33"/>
</svg>
