<svg width="77" height="77" viewBox="0 0 77 77" fill="none" xmlns="http://www.w3.org/2000/svg">
<rect width="76.6667" height="76.6667" rx="38.3333" fill="#DF1414" fill-opacity="0.05"/>
<path d="M31.6667 30C31.6667 28.2319 32.369 26.5362 33.6193 25.286C34.8695 24.0357 36.5652 23.3333 38.3333 23.3333C40.1014 23.3333 41.7971 24.0357 43.0474 25.286C44.2976 26.5362 45 28.2319 45 30C45 31.7681 44.2976 33.4638 43.0474 34.714C41.7971 35.9643 40.1014 36.6667 38.3333 36.6667C36.5652 36.6667 34.8695 35.9643 33.6193 34.714C32.369 33.4638 31.6667 31.7681 31.6667 30ZM38.3333 20C37.0201 20 35.7198 20.2587 34.5065 20.7612C33.2932 21.2638 32.1909 22.0003 31.2623 22.9289C30.3337 23.8575 29.5971 24.9599 29.0945 26.1732C28.592 27.3864 28.3333 28.6868 28.3333 30C28.3333 31.3132 28.592 32.6136 29.0945 33.8268C29.5971 35.0401 30.3337 36.1425 31.2623 37.0711C32.1909 37.9997 33.2932 38.7362 34.5065 39.2388C35.7198 39.7413 37.0201 40 38.3333 40C40.9855 40 43.529 38.9464 45.4044 37.0711C47.2798 35.1957 48.3333 32.6522 48.3333 30C48.3333 27.3478 47.2798 24.8043 45.4044 22.9289C43.529 21.0536 40.9855 20 38.3333 20ZM43.3333 48.3333C43.3331 47.4886 43.5468 46.6575 43.9547 45.9177C44.3626 45.1779 44.9512 44.5535 45.6657 44.1028C46.3802 43.6521 47.1973 43.3898 48.0406 43.3403C48.8839 43.2909 49.726 43.4559 50.4883 43.82L43.8217 50.4883C43.5002 49.8154 43.3334 49.0791 43.3333 48.3333ZM46.1783 52.8467L52.845 46.1783C53.2915 47.1116 53.4376 48.1604 53.263 49.1801C53.0884 50.1999 52.6018 51.1403 51.8702 51.8719C51.1387 52.6034 50.1982 53.09 49.1784 53.2646C48.1587 53.4392 47.1099 53.2932 46.1767 52.8467M48.3333 40C46.1232 40 44.0036 40.878 42.4408 42.4408C40.878 44.0036 40 46.1232 40 48.3333C40 50.5435 40.878 52.6631 42.4408 54.2259C44.0036 55.7887 46.1232 56.6667 48.3333 56.6667C50.5435 56.6667 52.6631 55.7887 54.2259 54.2259C55.7887 52.6631 56.6667 50.5435 56.6667 48.3333C56.6667 46.1232 55.7887 44.0036 54.2259 42.4408C52.6631 40.878 50.5435 40 48.3333 40ZM38.3333 41.6667C38.4733 41.6667 38.6133 41.6689 38.7533 41.6733C38.031 42.7111 37.4822 43.8594 37.1283 45.0733C34.7027 45.3678 32.4689 46.5401 30.8485 48.3689C29.2281 50.1978 28.3334 52.5566 28.3333 55H25C25 51.4638 26.4048 48.0724 28.9052 45.5719C31.4057 43.0714 34.7971 41.6667 38.3333 41.6667Z" fill="#DF1414"/>
</svg>
