<svg width="77" height="77" viewBox="0 0 77 77" fill="none" xmlns="http://www.w3.org/2000/svg">
<rect width="76.6667" height="76.6667" rx="38.3333" fill="#E8F6ED"/>
<path d="M35.4037 45.5229L28.332 38.4496L30.6887 36.0929L35.4037 40.8063L44.8304 31.3779L47.1887 33.7363L35.4037 45.5229Z" fill="#16A34A"/>
<path fill-rule="evenodd" clip-rule="evenodd" d="M20 38.3333C20 28.2083 28.2083 20 38.3333 20C48.4583 20 56.6667 28.2083 56.6667 38.3333C56.6667 48.4583 48.4583 56.6667 38.3333 56.6667C28.2083 56.6667 20 48.4583 20 38.3333ZM38.3333 53.3333C36.3635 53.3333 34.413 52.9453 32.5931 52.1915C30.7732 51.4377 29.1196 50.3328 27.7267 48.9399C26.3339 47.5471 25.229 45.8935 24.4751 44.0736C23.7213 42.2537 23.3333 40.3032 23.3333 38.3333C23.3333 36.3635 23.7213 34.413 24.4751 32.5931C25.229 30.7732 26.3339 29.1196 27.7267 27.7267C29.1196 26.3339 30.7732 25.229 32.5931 24.4751C34.413 23.7213 36.3635 23.3333 38.3333 23.3333C42.3116 23.3333 46.1269 24.9137 48.9399 27.7267C51.753 30.5398 53.3333 34.3551 53.3333 38.3333C53.3333 42.3116 51.753 46.1269 48.9399 48.9399C46.1269 51.753 42.3116 53.3333 38.3333 53.3333Z" fill="#16A34A"/>
</svg>
